<?xml version="1.0" encoding="utf-8"?>
<!-- Generator: Adobe Illustrator 24.3.0, SVG Export Plug-In . SVG Version: 6.00 Build 0)  -->
<svg version="1.1" id="图层_1" xmlns="http://www.w3.org/2000/svg" xmlns:xlink="http://www.w3.org/1999/xlink" x="0px" y="0px"
	 viewBox="0 0 250 50" style="enable-background:new 0 0 250 50;" xml:space="preserve">
<style type="text/css">
	.st0{fill:#55AB3F;}
	.st1{fill:#478C34;}
	.st2{fill:#196599;}
	.st3{fill:#256FAB;}
	.st4{opacity:0.5;}
	.st5{fill:#FFFFFF;}
	.st6{fill-rule:evenodd;clip-rule:evenodd;fill:#0073ED;}
	.st7{fill-rule:evenodd;clip-rule:evenodd;fill:#34CF00;}
	.st8{fill-rule:evenodd;clip-rule:evenodd;fill:#9E9E9F;}
	.st9{fill-rule:evenodd;clip-rule:evenodd;fill:#9F9E9F;}
	.st10{fill-rule:evenodd;clip-rule:evenodd;fill:#FFFFFF;}
</style>
<g>
	<path class="st6" d="M11.03,25.01L11.03,25.01l-1.51-0.8V12.9l1.51-0.8l12.23,6.45L11.03,25.01z M32.13,41.32l-18.77-9.86
		l18.77-9.9c0.56-0.3,1.07-0.77,1.41-1.41c0.9-1.67,0.26-3.73-1.41-4.59L8.03,2.85c-0.55-0.38-1.22-0.6-1.93-0.6
		c-0.01,0-0.02,0-0.03,0c-1.14,0-2.24,0.57-2.86,1.59C2.94,4.25,2.77,4.71,2.7,5.2c0,0.01,0,0.03-0.01,0.04
		c0,0.04-0.01,0.08-0.01,0.11c0,0.03,0,0.05-0.01,0.08c0,0.03,0,0.06-0.01,0.08c0,0.03,0,0.07,0,0.1c0,0.02,0,0.04,0,0.06v38.66
		c0,1.89,1.54,3.39,3.43,3.39c1.89,0,3.43-1.5,3.43-3.39v-5.67L11,37.9l17.96,9.47c1.67,0.86,3.73,0.26,4.59-1.41
		C34.45,44.28,33.8,42.22,32.13,41.32"/>
	<path class="st7" d="M32.13,8.66c1.67-0.86,2.31-2.91,1.41-4.59c-0.86-1.67-2.91-2.32-4.59-1.41l-9.17,4.84l7.28,3.84L32.13,8.66z"
		/>
	<path class="st7" d="M32.13,28.46l-18.77-9.9l4.95-2.61l-7.28-3.84l-6.54,3.45c-1.67,0.86-2.31,2.92-1.42,4.59
		c0.34,0.64,0.86,1.11,1.42,1.41l18.77,9.9l-4.95,2.6l7.31,3.84l6.52-3.43c0.6-0.3,1.11-0.77,1.41-1.42
		C34.45,31.37,33.8,29.32,32.13,28.46"/>
	<path class="st7" d="M4.49,41.32c-1.67,0.9-2.32,2.96-1.41,4.63c0.86,1.67,2.91,2.27,4.59,1.41l9.17-4.83l-7.31-3.85L4.49,41.32z"
		/>
	<path class="st8" d="M166.63,43.78c-0.83,0-1.51-0.27-2.04-0.82c-0.53-0.54-0.8-1.29-0.8-2.22c0-0.62,0.14-1.17,0.42-1.64
		c0.28-0.47,0.64-0.83,1.09-1.06c0.45-0.24,0.94-0.35,1.47-0.35c0.43,0,0.83,0.1,1.2,0.3c0.15,0.08,0.23,0.21,0.25,0.38
		c0.01,0.03,0.01,0.06,0.01,0.09c0,0.13-0.04,0.25-0.12,0.35l-0.02,0.02c-0.09,0.13-0.22,0.2-0.38,0.22
		c-0.05,0.01-0.1,0.02-0.14,0.02c-0.12,0-0.23-0.03-0.34-0.07c-1.11-0.43-1.95,0.71-1.95,1.74c0,1.22,0.94,2.2,2.17,1.65
		c0.1-0.04,0.19-0.07,0.29-0.07c0.05,0,0.1,0,0.15,0.01c0.16,0.04,0.27,0.12,0.34,0.24c0.07,0.11,0.1,0.22,0.1,0.33
		c0,0.05,0,0.09-0.01,0.13c-0.04,0.17-0.12,0.29-0.26,0.37C167.61,43.66,167.14,43.78,166.63,43.78"/>
	<path class="st8" d="M174.47,43.64c-0.17,0-0.31-0.06-0.43-0.18c-0.11-0.12-0.17-0.26-0.17-0.42v-4.61c0-0.17,0.06-0.31,0.17-0.43
		c0.12-0.11,0.26-0.17,0.43-0.17h0.05c0.17,0,0.32,0.06,0.44,0.17c0.13,0.11,0.21,0.25,0.23,0.42l0.02,0.16
		c0,0.01,0.01,0.02,0.02,0.02c0.01,0,0.03,0,0.04-0.01c0.24-0.38,0.45-0.52,0.73-0.68c0.28-0.16,0.59-0.24,0.93-0.24
		c0.75,0,1.27,0.32,1.57,0.95c0.02,0.04,0.05,0.05,0.08,0.01c0.3-0.3,0.59-0.54,0.87-0.71c0.28-0.17,0.49-0.25,0.83-0.25
		c0.61,0,1.06,0.2,1.36,0.61c0.3,0.41,0.45,0.98,0.45,1.73v3.02c0,0.16-0.06,0.3-0.17,0.42c-0.12,0.12-0.26,0.18-0.43,0.18h-0.32
		c-0.17,0-0.31-0.06-0.43-0.18c-0.12-0.12-0.17-0.26-0.17-0.42V40.2c0-0.44-0.08-0.74-0.19-0.94c-0.45-0.75-1.65-0.09-1.65,0.45
		v3.32c0,0.16-0.06,0.3-0.17,0.42c-0.11,0.12-0.26,0.18-0.43,0.18h-0.32c-0.17,0-0.31-0.06-0.43-0.18
		c-0.11-0.12-0.17-0.26-0.17-0.42V40.2c0-0.44-0.06-0.75-0.19-0.94c-0.13-0.19-0.34-0.27-0.62-0.28c-0.59-0.03-1.03,0.56-1.03,0.87
		v3.18c0,0.16-0.06,0.3-0.17,0.42c-0.11,0.12-0.25,0.18-0.43,0.18H174.47z"/>
	<path class="st8" d="M162.5,43.77c0.54,0,0.98-0.44,0.98-0.98c0-0.54-0.44-0.98-0.98-0.98c-0.54,0-0.98,0.44-0.98,0.98
		C161.52,43.33,161.96,43.77,162.5,43.77"/>
	<path class="st8" d="M171.92,39.34c-0.28-0.31-0.66-0.51-1.08-0.51c-0.42,0-0.8,0.19-1.08,0.51c-0.3,0.33-0.48,0.8-0.48,1.32
		c0,0.52,0.18,0.99,0.48,1.32c0.28,0.31,0.66,0.51,1.08,0.51c0.42,0,0.8-0.2,1.08-0.51c0.3-0.33,0.48-0.8,0.48-1.32
		C172.4,40.14,172.21,39.68,171.92,39.34 M170.84,37.69c0.76,0,1.44,0.34,1.93,0.9c0.48,0.54,0.77,1.27,0.77,2.08
		c0,0.81-0.29,1.54-0.77,2.08c-0.49,0.55-1.18,0.9-1.93,0.9c-0.76,0-1.44-0.34-1.94-0.9c-0.48-0.54-0.77-1.27-0.77-2.08
		c0-0.81,0.29-1.54,0.77-2.08C169.39,38.03,170.08,37.69,170.84,37.69"/>
	<path class="st6" d="M110.53,21.05c-0.12-0.18-0.18-0.33-0.37-0.52c-0.23-0.22-0.53-0.39-0.96-0.39c-1.56,0.01-3.32,1.53-4.31,2.73
		c-0.03,0.03-0.03,0.04-0.04,0.04c0,0-0.01-0.01-0.01-0.04c0-0.07-0.01-0.14-0.01-0.22c-0.15-1.86-3.47-1.94-3.47,0.03v11.69
		c0,1.81,3.1,2.02,3.6,0.46c0-3.56,0.04-5.81-0.03-8.8c0-0.11,0.03-0.16,0.14-0.2c0.96-0.27,2.66-0.95,3.93-1.78
		C110.32,23.19,111.19,22.18,110.53,21.05"/>
	<path class="st6" d="M63.74,25.3c-0.69-0.78-1.64-1.26-2.67-1.26c-1.04,0-1.98,0.48-2.67,1.26c-0.73,0.82-1.18,1.98-1.18,3.26
		c0,1.29,0.45,2.44,1.18,3.27c0.69,0.78,1.64,1.26,2.67,1.26c1.03,0,1.98-0.48,2.67-1.26c0.73-0.83,1.18-1.98,1.18-3.27
		C64.92,27.27,64.47,26.12,63.74,25.3 M61.06,21.21c1.87,0,3.56,0.85,4.78,2.22c1.17,1.32,1.9,3.14,1.9,5.13
		c0,1.99-0.73,3.81-1.9,5.13c-1.22,1.37-2.91,2.22-4.78,2.22c-1.87,0-3.56-0.85-4.78-2.22c-1.18-1.33-1.9-3.14-1.9-5.13
		c0-1.99,0.73-3.81,1.9-5.13C57.5,22.06,59.19,21.21,61.06,21.21"/>
	<path class="st6" d="M54.61,33.28c1.31,2.3-1.79,3.51-2.89,1.97c-1.42-1.98-2.47-4.31-3.65-6.48c-0.06-0.11-0.16-0.17-0.27-0.17
		h-2.24c-0.12,0-0.17,0.07-0.17,0.2v5.65c0,2.03-3.75,1.99-3.75,0v-15.7c0-0.91,0.45-1.76,1.46-1.76h5.05
		c4.68,0,7.03,1.89,7.03,5.67c0,1.32-0.3,2.42-0.89,3.3c-0.59,0.89-1.42,1.55-2.49,2c-0.11,0.05-0.15,0.13-0.1,0.22L54.61,33.28z
		 M45.56,19.94c-0.12,0-0.17,0.06-0.17,0.2l-0.04,5.19c0,0.12,0.05,0.17,0.17,0.17h2.24c1.2,0,2.12-0.25,2.76-0.75
		c0.64-0.5,1-1.11,1-2.1c0-0.98-0.31-1.68-0.93-2.1c-0.62-0.41-1.55-0.61-2.8-0.61H45.56z"/>
	<path class="st6" d="M68.12,30.19V22.7c0-2.04,3.69-2.04,3.69,0v7.02c0,1.09,0.08,1.82,0.44,2.23c0.88,1.02,2.83,0.92,3.66,0.25
		c0.6-0.48,0.77-1.2,0.77-1.55V22.7c0-2.04,3.7-2.04,3.7,0v11.7c0,1.91-2.98,1.98-3.21,0.32l-0.08-0.55
		c-0.02-0.03-0.04-0.05-0.07-0.05c-0.03,0-0.05,0.02-0.08,0.05C73.76,37.49,68.12,36.3,68.12,30.19"/>
	<path class="st6" d="M92.09,27.02c0,0.1,0.06,0.15,0.17,0.15h5.53c0.13,0,0.2-0.05,0.2-0.17C97.84,22.73,92.09,23.52,92.09,27.02
		 M95.55,35.93c-4.42,0-6.73-3.56-6.89-7.16c-0.09-2.05,0.37-4.05,1.89-5.58c0.61-0.62,1.32-1.1,2.11-1.45
		c0.79-0.35,1.6-0.53,2.44-0.53c6.12,0,7.59,8.55,4.29,8.55h-7.08c-0.13,0-0.17,0.07-0.15,0.2c0.47,3,3.22,3.67,5.85,2.62
		c0.74-0.3,1.42-0.01,1.76,0.51c0.42,0.63,0.36,1.58-0.42,1.94C98.11,35.61,96.84,35.93,95.55,35.93"/>
	<path class="st6" d="M121.01,35.93c-1.41-0.06-2.82-0.26-4.22-1.18c-0.32-0.21-0.53-0.48-0.59-0.88c-0.02-0.08-0.03-0.15-0.03-0.22
		c0-0.31,0.1-0.59,0.29-0.86c0.23-0.31,0.54-0.5,0.94-0.56h0.27c0.29,0,0.56,0.08,0.81,0.22c0.89,0.49,1.76,0.74,2.61,0.74
		c0.67,0,1.18-0.13,1.53-0.41c0.34-0.27,0.52-0.63,0.52-1.09c0-0.18-0.05-0.35-0.16-0.53c-0.11-0.17-0.22-0.31-0.36-0.43
		c-0.13-0.12-0.34-0.24-0.62-0.38c-0.28-0.14-0.51-0.25-0.69-0.32c-0.18-0.08-0.46-0.18-0.82-0.33c-0.15-0.05-0.25-0.1-0.32-0.13
		c-6.26-2.67-4.74-8.8,1.38-8.4c1.26,0.08,2.48,0.33,3.65,0.98c0.35,0.18,0.54,0.46,0.59,0.83c0.02,0.08,0.02,0.16,0.02,0.25
		c0,0.29-0.09,0.56-0.27,0.78c-0.23,0.31-0.54,0.5-0.94,0.56c-0.1,0.02-0.21,0.03-0.32,0.03c-0.27,0-0.52-0.06-0.77-0.17
		c-1.23-0.61-4.22-0.86-3.69,1.18c0.03,0.1,0.08,0.19,0.15,0.28c0.74,0.86,2.76,1.42,3.82,1.82c0.63,0.24,1.61,0.87,1.96,1.36
		C128.33,32.63,125.14,36.1,121.01,35.93"/>
	<path class="st6" d="M131.24,36c-0.43,0-0.81-0.14-1.14-0.41c-0.34-0.27-0.56-0.62-0.68-1.04L126.1,22.9
		c-0.03-0.12-0.03-0.23-0.03-0.33c0-0.23,0.08-0.46,0.25-0.68c0.52-0.69,2.21-0.51,2.81-0.03c0.33,0.27,0.54,0.62,0.64,1.04
		c0.65,3.03,1.4,6.21,1.91,9.25c0.01,0.03,0.02,0.05,0.05,0.05c0.03,0,0.07-0.01,0.07-0.05c0.65-3.35,1.45-5.93,2.23-9.25
		c0.46-1.96,3.51-1.97,3.99,0c0.79,3.22,1.75,5.98,2.29,9.24c0.02,0.03,0.05,0.05,0.08,0.05c0.04,0,0.12-0.13,0.12-0.16
		c0.65-3.33,1.13-5.76,1.86-9.12c0.09-0.43,0.27-0.81,0.6-1.1c0.79-0.69,2.83-0.58,2.83,0.79c0,0.1,0,0.21-0.03,0.31l-3.16,11.65
		c-0.11,0.42-0.32,0.77-0.66,1.04c-0.34,0.27-0.71,0.41-1.14,0.41h-0.71c-0.43,0-0.81-0.14-1.14-0.41
		c-0.34-0.27-0.52-0.62-0.65-1.04c-1.06-3.39-1.68-5.57-2.32-9.06c-0.01-0.05-0.05-0.07-0.09-0.07c-0.04,0-0.05,0.02-0.06,0.07
		c-0.63,3.49-1.22,5.67-2.25,9.06c-0.13,0.42-0.32,0.77-0.65,1.04c-0.34,0.27-0.72,0.41-1.15,0.41H131.24z"/>
	<path class="st6" d="M146.1,34.45l-0.01-11.7c0-0.41,0.14-0.82,0.42-1.1c0.59-0.59,2.25-0.59,2.84,0c0.28,0.28,0.42,0.69,0.42,1.1
		l0.01,11.7C149.77,36.44,146.1,36.46,146.1,34.45"/>
	<path class="st6" d="M165.15,35.93c-4.39,0-6.9-3.14-6.9-7.34c0-4.26,2.94-7.38,7.22-7.38c1.05,0,2.02,0.24,2.91,0.73
		c0.36,0.2,0.57,0.5,0.61,0.91c0.02,0.07,0.03,0.14,0.03,0.22c0,0.7-0.57,1.36-1.28,1.44c-0.12,0.03-0.23,0.05-0.34,0.05
		c-0.28,0-0.55-0.07-0.82-0.17c-2.75-1.06-5.16,1.36-5.1,4.13c0.06,2.95,2.66,5.37,5.62,4.06c0.24-0.1,0.47-0.17,0.72-0.17
		c0.11,0,0.24,0.01,0.37,0.03c1.21,0.27,1.49,2.01,0.42,2.62C167.54,35.64,166.38,35.93,165.15,35.93"/>
	<path class="st6" d="M169.75,34.44v-16.9c0-2,3.63-2.04,3.67,0l-0.04,5.44c0,0.04,0.04,0.05,0.07,0.03
		c0.02-0.02,0.02-0.02,0.04-0.04c1.39-1.26,2.79-1.88,4.22-1.88c2.93,0,4.39,1.9,4.39,5.69v7.66c0,2-3.72,2-3.72,0v-7.21
		c0-1.07-0.16-1.83-0.47-2.28c-0.61-0.89-2.07-0.78-2.92-0.34c-0.47,0.21-1.48,0.93-1.48,1.46l-0.09,8.37
		C173.4,36.45,169.75,36.43,169.75,34.44"/>
	<path class="st6" d="M147.91,20.17c1.14,0,2.07-0.93,2.07-2.07c0-1.14-0.93-2.07-2.07-2.07c-1.14,0-2.07,0.93-2.07,2.07
		C145.84,19.24,146.77,20.17,147.91,20.17"/>
	<path class="st6" d="M87.3,35.93c-3.11,0-4.66-1.77-4.66-5.3v-5.31c0-0.13-0.06-0.2-0.17-0.2h-0.45c-0.38,0-0.7-0.13-0.96-0.4
		c-0.26-0.26-0.4-0.58-0.4-0.96c0-0.39,0.13-0.73,0.4-1.02c0.26-0.29,0.58-0.46,0.96-0.48l0.62-0.05c0.13-0.01,0.19-0.07,0.2-0.2
		l0.14-2.15c0.11-1.76,3.38-2.07,3.38,0v2.15c0,0.13,0.06,0.2,0.17,0.2h1.17c0.41,0,0.76,0.14,1.03,0.42
		c0.28,0.28,0.42,0.63,0.42,1.03c0,0.41-0.14,0.76-0.42,1.04c-0.28,0.28-0.62,0.42-1.03,0.42h-1.17c-0.11,0-0.17,0.07-0.17,0.2v5.31
		c0,1.6,0.64,2.4,1.93,2.4h0.03h0.04c0.38,0,0.72,0.08,1.04,0.24c0.31,0.18,0.5,0.45,0.57,0.79c0.03,0.11,0.05,0.23,0.05,0.34
		c0,0.26-0.07,0.51-0.2,0.74c-0.2,0.35-0.48,0.56-0.86,0.64C88.39,35.88,87.84,35.93,87.3,35.93"/>
	<path class="st6" d="M156.75,35.93c-3.11,0-4.66-1.77-4.66-5.3v-5.31c0-0.13-0.06-0.2-0.17-0.2h-0.45c-0.38,0-0.7-0.13-0.96-0.4
		c-0.26-0.26-0.4-0.58-0.4-0.96c0-0.39,0.13-0.73,0.4-1.02c0.26-0.29,0.58-0.46,0.96-0.48l0.62-0.05c0.13-0.01,0.19-0.07,0.2-0.2
		l0.14-2.15c0.11-1.76,3.38-2.07,3.38,0v2.15c0,0.13,0.06,0.2,0.17,0.2h1.17c0.41,0,0.76,0.14,1.03,0.42
		c0.28,0.28,0.42,0.63,0.42,1.03c0,0.41-0.14,0.76-0.42,1.04c-0.28,0.28-0.62,0.42-1.03,0.42h-1.17c-0.11,0-0.17,0.07-0.17,0.2v5.31
		c0,1.6,0.64,2.4,1.93,2.4h0.03h0.04c0.38,0,0.72,0.08,1.03,0.24c0.31,0.18,0.5,0.45,0.57,0.79c0.03,0.11,0.05,0.23,0.05,0.34
		c0,0.26-0.07,0.51-0.2,0.74c-0.2,0.35-0.48,0.56-0.86,0.64C157.85,35.88,157.29,35.93,156.75,35.93"/>
	<path class="st7" d="M110.16,29.67c-0.26,0-0.48-0.13-0.67-0.38c-0.19-0.26-0.28-0.57-0.28-0.94s0.09-0.68,0.28-0.93
		c0.19-0.26,0.41-0.38,0.67-0.38h3.05c0.26,0,0.48,0.13,0.67,0.38c0.19,0.25,0.28,0.56,0.28,0.93s-0.1,0.68-0.28,0.94
		c-0.19,0.25-0.41,0.38-0.67,0.38H110.16z"/>
</g>
</svg>
