<?xml version="1.0" encoding="utf-8"?>
<!-- Svg Vector Icons : http://www.onlinewebfonts.com/icon -->
<!DOCTYPE svg PUBLIC "-//W3C//DTD SVG 1.1//EN" "http://www.w3.org/Graphics/SVG/1.1/DTD/svg11.dtd">
<svg version="1.1" xmlns="http://www.w3.org/2000/svg" xmlns:xlink="http://www.w3.org/1999/xlink" x="0px" y="0px" viewBox="0 0 256 256" enable-background="new 0 0 256 256" xml:space="preserve">
<metadata> Svg Vector Icons : http://www.onlinewebfonts.com/icon </metadata>
<g> <path fill="#0a3e21" d="M10,49.3h236v157.3H10V49.3z"/> <path fill="#ffffff" d="M10,49.3h59v157.3H10V49.3z M140.4,148.2c-17.4-17.4-17.4-46.6,0-64.1c1.1-1.1,2.2-2.2,3.4-2.8 c-6.7,2.2-13.5,6.2-18.5,11.8c-18.5,18.5-18.5,48.9,0,67.4c18.5,18.5,48.9,18.5,67.4,0c2.2-2.2,3.9-4.5,5.6-6.7 C180.3,166.2,156.1,164,140.4,148.2L140.4,148.2z M174.6,92.6l7.3,7.9l9.6-3.9l-5.6,9l6.7,7.9l-10.1-2.2l-5.1,9l-1.1-10.7 l-10.1-2.2l9.6-3.9L174.6,92.6z"/></g>
</svg>